<svg t="1732160744240" class="icon" viewBox="0 0 1024 1024" version="1.1" xmlns="http://www.w3.org/2000/svg" p-id="7383" width="32" height="32"><path d="M450.2656 945.28H216.6656c-49.92 0-90.88-40.96-90.88-91.52V154.88c0-50.56 40.96-91.52 90.88-91.52h572.8c49.92 0 90.24 40.96 90.24 91.52v289.92c0 17.92 14.08 32 31.36 32s32-14.08 32-32V154.88c0-85.12-69.12-154.88-153.6-154.88H216.6656C131.5456 0 63.0656 69.12 63.0656 154.88v699.52c0 85.12 68.48 155.52 153.6 155.52h233.6c17.28 0 31.36-14.08 31.36-32s-14.08-32.64-31.36-32.64z m-183.68-563.2c-17.28 0-32 14.72-32 32.64s14.72 32 32 32h356.48c17.92 0 32-14.08 32-32s-14.08-32.64-32-32.64H266.5856z m510.72-138.24c0-17.92-14.08-32-31.36-32H267.2256c-17.92 0-32 14.08-32 32s14.08 32 32 32h478.72c17.28 0 31.36-14.08 31.36-32z m177.28 319.36a24.896 24.896 0 0 0-25.6-8.96l-481.28 123.52c-9.6 2.56-17.28 10.24-18.56 20.48-1.92 10.24 2.56 19.84 10.88 25.6l138.88 94.72v179.84c0 10.24 6.4 19.84 16 23.68s20.48 1.28 27.52-6.4l98.56-110.08 90.24 71.68c6.4 3.84 13.44 5.76 21.12 3.84 7.04-2.56 13.44-7.04 16-14.72l110.08-376.32c3.84-8.96 2.56-19.2-3.84-26.88z m-325.76 370.56v-101.12l53.12 41.6-53.12 59.52z m186.24-16l-135.68-108.8 116.48-69.76c8.32-4.48 12.8-12.8 12.8-21.76s-4.48-17.92-12.8-22.4a23.68 23.68 0 0 0-24.32 0l-138.24 82.56c-8.32 5.12-18.56 5.12-26.24-1.28l-92.16-62.08 375.68-96.64-75.52 300.16z" fill="#ffffff" p-id="7384"></path></svg>